<?xml version="1.0" encoding="UTF-8" standalone="no"?>
<!-- Created with Inkscape (http://www.inkscape.org/) -->

<svg
   xmlns:dc="http://purl.org/dc/elements/1.1/"
   xmlns:cc="http://creativecommons.org/ns#"
   xmlns:rdf="http://www.w3.org/1999/02/22-rdf-syntax-ns#"
   xmlns:svg="http://www.w3.org/2000/svg"
   xmlns="http://www.w3.org/2000/svg"
   xmlns:sodipodi="http://sodipodi.sourceforge.net/DTD/sodipodi-0.dtd"
   xmlns:inkscape="http://www.inkscape.org/namespaces/inkscape"
   width="210mm"
   height="297mm"
   viewBox="0 0 210 297"
   version="1.1"
   id="svg8"
   inkscape:version="0.92.5 (2060ec1f9f, 2020-04-08)"
   sodipodi:docname="elv.svg">
  <defs
     id="defs2" />
  <sodipodi:namedview
     id="base"
     pagecolor="#ffffff"
     bordercolor="#666666"
     borderopacity="1.0"
     inkscape:pageopacity="0.0"
     inkscape:pageshadow="2"
     inkscape:zoom="1.4"
     inkscape:cx="405.71429"
     inkscape:cy="560"
     inkscape:document-units="mm"
     inkscape:current-layer="layer1"
     showgrid="false"
     inkscape:window-width="1680"
     inkscape:window-height="1026"
     inkscape:window-x="1680"
     inkscape:window-y="0"
     inkscape:window-maximized="1" />
  <metadata
     id="metadata5">
    <rdf:RDF>
      <cc:Work
         rdf:about="">
        <dc:format>image/svg+xml</dc:format>
        <dc:type
           rdf:resource="http://purl.org/dc/dcmitype/StillImage" />
        <dc:title></dc:title>
      </cc:Work>
    </rdf:RDF>
  </metadata>
  <g
     inkscape:label="1. réteg"
     inkscape:groupmode="layer"
     id="layer1">
    <path
       style="fill:none;stroke:#000000;stroke-width:0.26458332px;stroke-linecap:butt;stroke-linejoin:miter;stroke-opacity:1"
       d="m 12.473214,145.24256 c 1.048721,0.36546 2.142789,0.0917 3.212798,0.18899 0.381616,0.0347 0.752312,0.15429 1.133928,0.18898 0.313687,0.0285 0.629961,0 0.944941,0 0.31498,0 0.62996,0 0.94494,0 0.132292,0 2.70253,0 2.834822,0 3.653769,0 7.307539,0 10.961308,0 9.449406,0 18.898809,0 28.348215,0 3.905755,0 7.811508,0 11.717261,0 1.763889,0 3.527779,0 5.291666,0 0.503971,0 1.008809,0.0296 1.511906,0 0.569468,-0.0335 1.131702,-0.15104 1.700892,-0.18898 0.37714,-0.0251 0.755952,0 1.133931,0 1.007935,0 2.015871,0 3.023809,0 2.645833,0 5.291666,0 7.9375,0 1.007935,0 2.015873,0 3.023809,0 0.503967,0 1.011388,0.0589 1.511903,0 0.576818,-0.0679 1.124077,-0.31012 1.700895,-0.37798 0.500515,-0.0589 1.007932,0 1.511902,0 0.62996,0 1.25992,0 1.88988,0 0.56697,0 1.13869,0.0733 1.7009,0 0.89438,-0.11666 1.749,-0.47088 2.64583,-0.56697 0.87692,-0.094 1.76389,0 2.64583,0 1.51191,0 3.02381,0 4.53572,0 4.28373,0 8.56746,0 12.85119,0 8.94543,0 17.89087,0 26.83631,0 1.44891,0 2.89781,0 4.34672,0 0.75595,0 1.51383,0.0539 2.26786,0 3.39419,-0.24244 -0.56257,-0.18898 2.45684,-0.18898 1.25993,0 2.51985,0 3.77977,0 0.37797,0 0.75595,0 1.13392,0 0.25199,0 0.50804,0.0451 0.75596,0 0.87245,0.2584 1.35583,-0.61135 2.07887,-0.75596 0.67949,-0.13589 1.39937,0.1359 2.07887,0 0.33265,-0.0665 0.61377,-0.30438 0.94494,-0.37797 0.18898,-0.042 1.07093,0.0315 1.32291,0 0.31874,-0.0398 0.62569,-0.15352 0.94494,-0.18899 0.25045,-0.0278 0.50397,0 0.75596,0 0.56696,0 1.13392,0 1.70089,0 1.82688,0 3.65377,0 5.48065,0 0.56697,0 1.13393,0 1.7009,0 0.18898,0 0.37797,0 0.56696,0 0.063,0 0.13264,0.0282 0.18899,0 0.15937,-0.0797 0.2186,-0.29829 0.37797,-0.37797 0.22161,-0.11081 0.22431,0.11215 0.37798,0.18898 0.0563,0.0282 0.12599,0 0.18899,0 0.063,0 0.12599,0 0.18899,0 0.18898,0 0.37797,0 0.56696,0 0.75595,0 1.51191,0 2.26786,0 0.25198,0 0.50886,0.0494 0.75595,0 0.13813,-0.0276 0.24434,-0.14444 0.37798,-0.18898 0.12499,-0.0417 0.94827,0 1.13393,0"
       id="path12"
       inkscape:connector-curvature="0" />
    <path
       style="fill:none;stroke:#000000;stroke-width:0.26458332px;stroke-linecap:butt;stroke-linejoin:miter;stroke-opacity:1"
       d="m 197.49256,109.7128 c -0.84505,0 -0.57778,-0.17818 -0.94494,0.18898 -0.126,0.126 -0.22973,0.27914 -0.37798,0.37798 -0.0524,0.0349 -0.12599,0 -0.18899,0 -0.12599,0.063 -0.26528,0.10447 -0.37797,0.18899 -0.126,0.12599 -0.25199,0.25198 -0.37798,0.37798 -0.063,0 -0.13264,-0.0282 -0.18899,0 -0.0797,0.0398 -0.12599,0.12599 -0.18899,0.18898 -0.063,0.063 -0.14914,0.10931 -0.18898,0.18899 -0.0282,0.0563 0.0349,0.13657 0,0.18899 -0.0988,0.14825 -0.27914,0.22972 -0.37798,0.37797 -0.035,0.0524 0,0.126 0,0.18899 0,0.126 0,0.25199 0,0.37798 0,0.25198 0,0.50397 0,0.75595 0,0.12599 0.0306,0.25575 0,0.37798 -0.0342,0.13666 -0.18899,0.23711 -0.18899,0.37797 0,0.22884 0.23411,0.4231 0.37798,0.56697 0.40673,0.40673 0.49937,0.56696 1.13393,0.56696 0.063,0 0.14444,0.0446 0.18898,0 0.0445,-0.0445 -0.0445,-0.14444 0,-0.18898 0.0445,-0.0445 0.13265,0.0282 0.18899,0 0.0797,-0.0398 0.10447,-0.16082 0.18899,-0.18899 0.11953,-0.0398 0.26529,0.0563 0.37798,0 0.0165,-0.008 0.93666,-0.9284 0.94494,-0.94494 0.0563,-0.1127 -0.0564,-0.26529 0,-0.37798 0.0797,-0.15937 0.25198,-0.25198 0.37797,-0.37798 0.063,-0.063 0.16738,-0.10255 0.18899,-0.18899 0.0917,-0.36668 -0.0917,-0.76723 0,-1.13392 0.0216,-0.0864 0.12599,-0.12599 0.18899,-0.18899 0.19211,-0.19211 0.3017,-0.26186 0.37798,-0.56696 0.15569,-0.62276 -0.19918,-0.1788 0.18898,-0.56697 0.063,-0.063 0.126,-0.25198 0.18899,-0.18899 0.063,0.063 -0.18899,0.27808 -0.18899,0.18899 0,-0.14086 0.15483,-0.24132 0.18899,-0.37798 0.0601,-0.24038 0.0466,-0.44917 -0.18899,-0.56696 -0.0563,-0.0282 -0.12599,0 -0.18898,0 -0.063,0 -0.126,0 -0.18899,0"
       id="path14"
       inkscape:connector-curvature="0" />
    <path
       style="fill:none;stroke:#000000;stroke-width:0.26458332px;stroke-linecap:butt;stroke-linejoin:miter;stroke-opacity:1"
       d="m 7.3705357,115.00446 c 0.377976,-0.31498 0.7038302,-0.70599 1.1339284,-0.94494 0.1652053,-0.0918 0.3779764,0 0.5669643,0 0.4409723,0 0.8819446,0 1.3229166,0 0.881945,0 1.763889,0 2.645833,0 0.23486,0 1.097786,0.0375 1.322917,0 0.1965,-0.0328 0.377976,-0.12599 0.566964,-0.18899 0.188988,-0.063 0.382002,-0.115 0.566965,-0.18898 0.130788,-0.0523 0.244341,-0.14445 0.377976,-0.18899 0.675259,-0.22509 -0.778539,0.7317 0.755952,-0.18899 0.229182,-0.13751 0.377976,-0.37798 0.566964,-0.56697"
       id="path16"
       inkscape:connector-curvature="0" />
    <path
       style="fill:none;stroke:#000000;stroke-width:0.26458332px;stroke-linecap:butt;stroke-linejoin:miter;stroke-opacity:1"
       d="m 7.3705357,115.00446 c 0.5669642,0.12599 1.1550657,0.1795 1.7008927,0.37798 0.1674521,0.0609 0.2519841,0.25198 0.3779763,0.37797 0.3149801,0.31499 0.6299603,0.62997 0.9449403,0.94494 0.125992,0.126 0.225188,0.28631 0.377976,0.37798 1.366488,0.81989 -0.220652,-0.35284 1.133929,0.18899 1.255086,0.50203 -0.396064,0.27896 0.755952,0.56696 0.240606,0.0602 0.6995,-0.0614 0.944941,0 0.193263,0.0483 0.377976,0.126 0.566964,0.18899"
       id="path18"
       inkscape:connector-curvature="0" />
    <path
       style="fill:none;stroke:#000000;stroke-width:0.26458332px;stroke-linecap:butt;stroke-linejoin:miter;stroke-opacity:1"
       d="m 12.85119,114.05952 c -0.188988,0.31498 -0.377976,0.62996 -0.566964,0.94494 0,0.063 0.01992,0.12923 0,0.18899 -0.04455,0.13363 -0.10447,0.26529 -0.188988,0.37798 -0.106908,0.14254 -0.286303,0.22518 -0.377976,0.37797 -0.102493,0.17083 -0.0999,0.38879 -0.188988,0.56697 -0.03984,0.0797 -0.149146,0.1093 -0.188988,0.18898 -0.0147,0.0294 -0.0078,0.56437 0,0.56697 0.927775,0.30926 1.889881,0.50396 2.834821,0.75595"
       id="path20"
       inkscape:connector-curvature="0" />
    <path
       style="fill:none;stroke:#000000;stroke-width:0.26458332px;stroke-linecap:butt;stroke-linejoin:miter;stroke-opacity:1"
       d="m 192.57887,113.87053 c -0.0689,0.93892 -0.67767,0.0108 -0.94494,0.18899 -0.14826,0.0988 -0.22972,0.27914 -0.37798,0.37798 -0.0524,0.0349 -0.12599,0 -0.18899,0 -0.12599,0 -0.25845,-0.0398 -0.37797,0 -0.0845,0.0282 -0.10447,0.16081 -0.18899,0.18899 -0.11057,0.0369 -0.97172,0 -1.13393,0 -0.12599,0 -0.26529,-0.0564 -0.37798,0 -0.15936,0.0797 -0.22972,0.27914 -0.37797,0.37797 -0.0926,0.0617 -0.85236,-0.0617 -0.94494,0 -0.14826,0.0988 -0.25199,0.25199 -0.37798,0.37798 -0.063,0.063 -0.1093,0.14914 -0.18899,0.18899 -0.0563,0.0282 -0.13264,-0.0282 -0.18899,0 -0.15937,0.0797 -0.2186,0.29829 -0.37797,0.37797 -0.0564,0.0282 -0.13265,-0.0282 -0.18899,0 -0.0797,0.0398 -0.1093,0.14915 -0.18899,0.18899 -0.0563,0.0282 -0.13657,-0.0349 -0.18899,0 -0.12599,0.12599 -0.25198,0.25199 -0.37797,0.37798 -0.063,0 -0.13264,-0.0282 -0.18899,0 -0.0797,0.0398 -0.10447,0.16081 -0.18899,0.18898 -0.11952,0.0399 -0.25845,-0.0398 -0.37797,0 -0.12798,0.0427 -0.4226,0.49479 -0.56697,0.56697 -0.0563,0.0282 -0.12599,0 -0.18899,0 -0.12599,0 -0.25845,-0.0398 -0.37797,0 -0.16904,0.0564 -0.21861,0.29829 -0.37798,0.37798 -0.0564,0.0282 -0.13264,-0.0282 -0.18899,0 -0.0797,0.0398 -0.10447,0.16081 -0.18899,0.18898 -0.11952,0.0399 -0.25845,-0.0398 -0.37797,0 -0.16904,0.0563 -0.21861,0.2983 -0.37798,0.37798 -0.0563,0.0282 -0.12922,-0.0199 -0.18899,0 -0.13363,0.0446 -0.24434,0.14444 -0.37797,0.18899 -0.11953,0.0398 -0.26529,-0.0563 -0.37798,0 -0.15937,0.0797 -0.21861,0.29829 -0.37797,0.37798 -0.0564,0.0282 -0.12923,-0.0199 -0.18899,0 -0.13364,0.0445 -0.24434,0.14444 -0.37798,0.18898 -0.28348,0.0945 -0.18899,-0.18898 -0.56696,0 -0.15937,0.0797 -0.22972,0.27914 -0.37798,0.37798 -0.0524,0.0349 -0.13264,-0.0282 -0.18899,0 -0.0797,0.0398 -0.1093,0.14914 -0.18899,0.18899 -0.17817,0.0891 -0.38878,0.0999 -0.56696,0.18898 -0.0797,0.0399 -0.12599,0.126 -0.18899,0.18899 -0.18899,0.18899 -0.35315,0.40661 -0.56696,0.56697 -0.1008,0.0756 -0.26529,-0.0563 -0.37798,0 -0.0797,0.0398 -0.1093,0.14914 -0.18899,0.18898 -0.0563,0.0282 -0.13657,-0.0349 -0.18898,0 -0.14826,0.0988 -0.22973,0.27915 -0.37798,0.37798 -0.0524,0.0349 -0.13657,-0.0349 -0.18899,0 -0.14825,0.0988 -0.25198,0.25199 -0.37798,0.37798 -0.063,0.063 -0.1093,0.14914 -0.18898,0.18899 -0.0563,0.0282 -0.13265,-0.0282 -0.18899,0 -0.0797,0.0398 -0.10931,0.14914 -0.18899,0.18898 -0.0564,0.0282 -0.13657,-0.0349 -0.18899,0 -0.14825,0.0988 -0.25198,0.25199 -0.37797,0.37798 -0.063,0.063 -0.10931,0.14915 -0.18899,0.18899 -0.0564,0.0282 -0.13265,-0.0282 -0.18899,0 -0.15937,0.0797 -0.22972,0.27914 -0.37798,0.37798 -0.1172,0.0781 -0.24434,0.14444 -0.37797,0.18898 -0.0598,0.0199 -0.13658,-0.0349 -0.18899,0 -0.14826,0.0988 -0.22972,0.27914 -0.37798,0.37798 -0.10483,0.0699 -0.25845,-0.0398 -0.37797,0 -0.13364,0.0445 -0.26529,0.10447 -0.37798,0.18899 -0.14254,0.1069 -0.25198,0.25198 -0.37798,0.37797 -0.063,0.063 -0.1093,0.14915 -0.18898,0.18899 -0.0563,0.0282 -0.126,0 -0.18899,0 -0.12599,0 -0.25845,-0.0398 -0.37798,0 -0.12797,0.0427 -0.42259,0.49478 -0.56696,0.56696 -0.0564,0.0282 -0.12599,0 -0.18899,0 -0.12599,0.126 -0.22972,0.27915 -0.37798,0.37798 -0.0524,0.0349 -0.13264,-0.0282 -0.18898,0 -0.0797,0.0398 -0.10931,0.14915 -0.18899,0.18899 -0.0564,0.0282 -0.13658,-0.0349 -0.18899,0 -0.14826,0.0988 -0.22972,0.27914 -0.37798,0.37798 -0.10483,0.0699 -0.25845,-0.0399 -0.37797,0 -0.13364,0.0445 -0.23985,0.16136 -0.37798,0.18898 -0.18532,0.0371 -0.39149,-0.0702 -0.56696,0 -0.16544,0.0662 -0.22972,0.27914 -0.37798,0.37798 -0.0519,0.0346 -0.71517,-0.0136 -0.75595,0 -0.0845,0.0282 -0.10447,0.16081 -0.18899,0.18899 -0.18787,0.0626 -0.78436,-0.0803 -0.94494,0 -0.15937,0.0797 -0.21861,0.29829 -0.37798,0.37798 -0.11269,0.0563 -0.25574,-0.0306 -0.37797,0 -0.13666,0.0342 -0.24434,0.14444 -0.37798,0.18898 -0.0598,0.0199 -0.12599,0 -0.18899,0 -0.18899,0.063 -0.38878,0.0999 -0.56696,0.18899 -0.0797,0.0398 -0.11486,0.13957 -0.18899,0.18899 -0.11721,0.0781 -0.25198,0.12599 -0.37798,0.18899 -0.12599,0.12599 -0.22972,0.27914 -0.37797,0.37797 -0.0524,0.035 -0.12923,-0.0199 -0.18899,0 -0.13363,0.0446 -0.24434,0.14445 -0.37798,0.18899 -0.11952,0.0398 -0.25844,-0.0398 -0.37797,0 -0.64624,0.21541 -0.14064,0.15675 -0.75595,0.56696 -0.0796,0.0531 -1.05649,-0.0516 -1.13393,0 -0.14826,0.0988 -0.22972,0.27915 -0.37798,0.37798 -0.10483,0.0699 -0.25845,-0.0398 -0.37798,0 -0.13363,0.0446 -0.24434,0.14444 -0.37797,0.18899 -0.1961,0.0654 -0.99234,-0.0708 -1.13393,0 -0.15937,0.0797 -0.22972,0.27914 -0.37798,0.37798 -0.0524,0.0349 -0.13264,-0.0282 -0.18898,0 -0.0797,0.0398 -0.10448,0.16081 -0.18899,0.18898 -0.18787,0.0626 -0.78436,-0.0803 -0.94494,0 -0.15937,0.0797 -0.22972,0.27914 -0.37798,0.37798 -0.10483,0.0699 -0.26528,-0.0564 -0.37798,0 -0.20315,0.10158 -0.37219,0.26112 -0.56696,0.37798 -0.2793,0.16758 -0.63587,0.30071 -0.94494,0.37797 -0.67196,0.16799 0.75595,-0.50397 -0.75595,0 -0.21548,0.0718 -0.35608,0.29362 -0.56697,0.37798 -0.94494,0.37797 0,-0.18899 -0.56696,0 -0.13364,0.0445 -0.24434,0.14444 -0.37798,0.18899 -0.12492,0.0416 -1.12016,0 -1.32291,0 -0.18899,0 -0.37798,0 -0.56697,0 -0.12599,0 -0.26099,-0.0468 -0.37797,0 -0.33873,0.13549 -0.57805,0.47524 -0.94495,0.56696 -0.12222,0.0306 -0.25198,0 -0.37797,0 -0.25198,0.063 -0.50954,0.10685 -0.75595,0.18899 -0.61692,0.20564 -0.15842,0.24689 -0.94494,0.37797 -0.18642,0.0311 -0.37798,0 -0.56697,0 -0.12599,0 -0.25845,-0.0398 -0.37797,0 -0.16904,0.0563 -0.21861,0.2983 -0.37798,0.37798 -0.0564,0.0282 -0.12599,0 -0.18899,0 -0.063,0 -0.12599,0 -0.18899,0 -0.31498,0 -0.62996,0 -0.94494,0 -0.12599,0 -0.25198,0 -0.37797,0 -0.063,0 -0.12788,-0.0153 -0.18899,0 -0.19326,0.0483 -0.37162,0.14992 -0.56697,0.18899 -0.30886,0.0618 -0.63607,-0.0618 -0.94494,0 -0.27625,0.0553 -0.48263,0.30965 -0.75595,0.37798 -0.32813,0.082 -0.8058,-0.082 -1.13393,0 -0.13665,0.0342 -0.24434,0.14444 -0.37797,0.18898 -0.0598,0.0199 -0.12599,0 -0.18899,0 -0.12599,0 -0.25199,0 -0.37798,0 -0.25198,0 -0.50397,0 -0.75595,0 -0.37798,0 -0.75595,0 -1.13393,0 -0.12599,0 -0.26099,-0.0468 -0.37798,0 -0.21088,0.0844 -0.34856,0.31558 -0.56696,0.37798 -0.24229,0.0692 -0.50886,-0.0494 -0.75595,0 -0.0874,0.0175 -0.10256,0.16738 -0.18899,0.18899 -0.18334,0.0458 -0.37798,0 -0.56696,0 -0.126,0 -0.261,-0.0468 -0.37798,0 -0.21089,0.0844 -0.38526,0.24169 -0.56696,0.37798 -0.0713,0.0534 -0.10447,0.16081 -0.18899,0.18898 -0.11953,0.0399 -0.25199,0 -0.37798,0 -0.18899,0 -0.38164,-0.0371 -0.56696,0 -0.27626,0.0553 -0.4797,0.32273 -0.75596,0.37798 -0.18531,0.0371 -0.38164,-0.0371 -0.56696,0 -0.13813,0.0276 -0.24434,0.14444 -0.37798,0.18899 -0.0598,0.0199 -0.12599,0 -0.18898,0 -0.126,0 -0.25199,0 -0.37798,0 -0.18899,0 -0.37798,0 -0.56696,0 -0.18899,0 -0.3915,-0.0702 -0.56697,0 -0.16544,0.0662 -0.21861,0.29829 -0.37797,0.37797 -0.1127,0.0564 -0.25199,0 -0.37798,0 -0.18899,0 -0.38055,-0.0311 -0.56697,0 -0.1965,0.0327 -0.37046,0.15624 -0.56696,0.18899 -0.18642,0.0311 -0.39149,-0.0702 -0.56696,0 -0.16544,0.0662 -0.22519,0.28631 -0.37798,0.37798 -0.34818,0.20891 -0.45584,0.18898 -0.75595,0.18898 -0.126,0 -0.25199,0 -0.37798,0 -0.063,0 -0.13657,-0.0349 -0.18899,0 -0.14825,0.0988 -0.22972,0.27915 -0.37797,0.37798 -0.0406,0.0271 -0.63412,0 -0.75596,0 -0.56696,0 -1.13392,0 -1.70089,0 -0.31498,0 -0.63424,-0.0518 -0.94494,0 -0.4656,0.0776 -0.90701,0.35902 -1.32292,0.56697 -0.12599,0.063 -0.23984,0.16136 -0.37797,0.18898 -0.18532,0.0371 -0.38362,-0.0458 -0.56697,0 -0.17285,0.0432 -0.2186,0.2983 -0.37797,0.37798 -0.0563,0.0282 -0.12599,0 -0.18899,0 -0.063,0 -0.12599,0 -0.18899,0 -0.31498,0 -0.62996,0 -0.94494,0 -0.18899,0 -0.37797,0 -0.56696,0 -0.063,0 -0.12787,-0.0153 -0.18899,0 -0.19326,0.0483 -0.37046,0.15624 -0.56697,0.18899 -0.0863,0.0144 -1.09874,-0.0151 -1.13392,0 -0.28952,0.12408 -0.46103,0.45637 -0.75596,0.56696 -0.0365,0.0137 -1.41979,-0.0131 -1.5119,0 -0.19721,0.0282 -0.36976,0.16082 -0.56697,0.18899 -0.0886,0.0126 -1.62007,-0.0323 -1.70089,0 -0.16543,0.0662 -0.22972,0.27914 -0.37797,0.37798 -0.0369,0.0246 -0.85872,0 -0.94494,0 -0.75596,0 -1.51191,0 -2.26786,0 -0.31498,0 -0.63425,-0.0518 -0.94494,0 -1.28527,0.21421 0.1721,0.13162 -1.13393,0.56696 -0.0746,0.0249 -0.96896,0 -1.13393,0 -0.81895,0 -1.6379,0 -2.45684,0 -2.645838,0 -5.291671,0 -7.937505,0 -2.20486,0 -4.409723,0 -6.614583,0 -0.440973,0 -0.881943,0 -1.322916,0 -0.125992,0 -0.251984,0 -0.377976,0 -0.063,0 -0.127873,0.0153 -0.188989,0 -0.193263,-0.0483 -0.371621,-0.14992 -0.566963,-0.18899 -0.123547,-0.0247 -0.251984,0 -0.377978,0 -0.188987,0 -0.377976,0 -0.566963,0 -0.063,0 -0.132643,0.0282 -0.188989,0 -0.203155,-0.10158 -0.351483,-0.30615 -0.566965,-0.37797 -0.127833,-0.0426 -0.905124,0 -1.133927,0 -0.503968,0 -1.007936,0 -1.511906,0 -0.188987,0 -0.387673,0.0598 -0.566963,0 -0.08452,-0.0282 -0.10447,-0.16082 -0.188989,-0.18899 -0.236455,-0.0788 -0.863946,0.0675 -1.133927,0 -0.193265,-0.0483 -0.388784,-0.0999 -0.566965,-0.18899 -0.159369,-0.0797 -0.218607,-0.29829 -0.377976,-0.37797 -0.05635,-0.0282 -0.136573,0.0349 -0.188989,0 -0.148254,-0.0988 -0.229722,-0.27915 -0.377976,-0.37798 -0.07815,-0.0521 -0.619414,0.0455 -0.755952,0 -0.133636,-0.0445 -0.251984,-0.126 -0.377976,-0.18899 -0.125992,-0.063 -0.26077,-0.11085 -0.377975,-0.18899 -0.07413,-0.0494 -0.104471,-0.16081 -0.18899,-0.18899 -0.119525,-0.0398 -0.251983,0 -0.377975,0 -0.314982,0 -0.62996,0 -0.944941,0 -0.125992,0 -0.251984,0 -0.377976,0 -0.063,0 -0.129225,0.0199 -0.188989,0 -0.133633,-0.0445 -0.24434,-0.14444 -0.377976,-0.18898 -0.05976,-0.0199 -0.125992,0 -0.188987,0 -0.125992,0 -0.253698,0.0207 -0.377978,0 -0.256204,-0.0427 -0.514789,-0.0925 -0.755952,-0.18899 -0.08272,-0.0331 -0.109302,-0.14915 -0.188986,-0.18899 -0.05635,-0.0282 -0.125992,0 -0.18899,0 -0.06299,0 -0.125991,0 -0.188989,0 -0.314978,0 -0.629959,0 -0.944938,0 -0.251984,0 -0.50397,0 -0.755954,0 -0.125992,0 -0.251984,0 -0.377976,0 -0.063,0 -0.127873,0.0153 -0.188987,0 -0.193265,-0.0483 -0.370464,-0.15624 -0.566965,-0.18899 -0.05611,-0.009 -1.064979,0.046 -1.13393,0 -0.148254,-0.0988 -0.229722,-0.27914 -0.377976,-0.37798 -0.05241,-0.0349 -0.125991,0 -0.188986,0 -0.125992,0 -0.25845,0.0399 -0.377976,0 -0.08452,-0.0282 -0.112596,-0.14315 -0.188989,-0.18898 -0.241578,-0.14495 -0.494377,-0.27335 -0.755952,-0.37798 -0.11698,-0.0468 -0.25845,0.0398 -0.377976,0 -0.133635,-0.0445 -0.244342,-0.14444 -0.377978,-0.18899 -0.136538,-0.0455 -0.677799,0.0521 -0.755952,0 -0.148254,-0.0988 -0.229721,-0.27914 -0.377975,-0.37797 -0.05242,-0.0349 -0.125992,0 -0.18899,0 -0.125992,0 -0.255743,0.0306 -0.377975,0 -0.136658,-0.0342 -0.244341,-0.14445 -0.377976,-0.18899 -0.212612,-0.0709 -0.330729,0.14174 -0.566965,0 -0.22918,-0.13751 -0.353148,-0.4066 -0.566963,-0.56696 -0.100793,-0.0756 -0.255746,0.0306 -0.377976,0 -0.811125,-0.20279 -0.421468,-0.20639 -1.322916,-0.56697 -0.116983,-0.0468 -0.254431,0.0247 -0.377979,0 -0.254693,-0.0509 -0.501255,-0.13805 -0.755951,-0.18899 -0.06177,-0.0123 -0.136573,0.0349 -0.188987,0 -0.148256,-0.0988 -0.251986,-0.25198 -0.377978,-0.37797 -0.063,-0.063 -0.109302,-0.14915 -0.188987,-0.18899 -0.05635,-0.0282 -0.125992,0 -0.188989,0 -0.125992,0 -0.255746,0.0306 -0.377976,0 -0.912611,-0.22816 0.0094,-0.0898 -0.566965,-0.37798 -0.12451,-0.0622 -0.959159,0.0583 -1.133927,0 -0.08452,-0.0282 -0.104471,-0.16081 -0.18899,-0.18899 -0.119525,-0.0398 -0.251983,0 -0.377975,0 -0.125992,-0.12599 -0.229722,-0.27914 -0.377976,-0.37797 -0.104831,-0.0699 -0.255746,0.0306 -0.377976,0 -0.193262,-0.0483 -0.371621,-0.14992 -0.566965,-0.18899 -0.123545,-0.0247 -0.251984,0 -0.377976,0 -0.06299,0 -0.132643,0.0282 -0.188986,0 -0.226788,-0.11339 -0.340181,-0.45357 -0.566965,-0.56697 -0.18899,-0.0945 -0.377976,0.0472 -0.566965,0 -0.193263,-0.0483 -0.388785,-0.0999 -0.566966,-0.18898 -0.07968,-0.0399 -0.109302,-0.14915 -0.188986,-0.18899 -0.05635,-0.0282 -0.125992,0 -0.188989,0 -0.125992,-0.063 -0.265285,-0.10447 -0.377976,-0.18899 -0.142544,-0.10691 -0.218607,-0.29829 -0.377976,-0.37797 -0.112691,-0.0564 -0.25845,0.0398 -0.377976,0 -0.08452,-0.0282 -0.112593,-0.14316 -0.188989,-0.18899 -0.241578,-0.14495 -0.514374,-0.23303 -0.755952,-0.37798 -0.07639,-0.0458 -0.109304,-0.14915 -0.188989,-0.18899 -0.05634,-0.0282 -0.13657,0.0349 -0.188986,0 -0.148254,-0.0988 -0.235432,-0.27107 -0.377976,-0.37797 -0.112692,-0.0845 -0.244343,-0.14445 -0.377976,-0.18899 -0.119528,-0.0398 -0.273145,0.0699 -0.377978,0 -0.148254,-0.0988 -0.229722,-0.27914 -0.377976,-0.37798 -0.05241,-0.0349 -0.125992,0 -0.188987,0 -0.125992,0 -0.25845,0.0398 -0.377976,0 -0.08452,-0.0282 -0.10447,-0.16081 -0.188989,-0.18899 -0.119525,-0.0398 -0.265284,0.0564 -0.377976,0 -0.159369,-0.0797 -0.229722,-0.27914 -0.377976,-0.37797 -0.05242,-0.0349 -0.132643,0.0282 -0.188989,0 -0.07968,-0.0399 -0.125992,-0.12599 -0.188986,-0.18899 -0.125992,0 -0.260996,0.0468 -0.377979,0 -0.210889,-0.0844 -0.363807,-0.2764 -0.566962,-0.37798 -0.178181,-0.0891 -0.373703,-0.14067 -0.566965,-0.18899 -0.06112,-0.0153 -0.132644,0.0282 -0.188989,0 -0.203155,-0.10157 -0.356074,-0.29361 -0.566963,-0.37797 -0.11698,-0.0468 -0.251984,0 -0.377976,0 -0.251986,0 -0.507396,0.0414 -0.755954,0 -0.212151,-0.0354 -0.855734,-0.52236 -0.944941,-0.56696 -0.12451,-0.0623 -0.959159,0.0583 -1.133927,0 -0.08452,-0.0282 -0.104471,-0.16082 -0.188989,-0.18899 -1.19924,-0.39975 0.620572,0.65441 -0.755952,-0.37798 -0.535374,-0.40153 -0.197125,-0.0493 -0.755952,-0.18899 -0.273314,-0.0683 -0.494376,-0.27334 -0.755951,-0.37797 -0.184965,-0.074 -0.388787,-0.0999 -0.566965,-0.18899 -0.203158,-0.10158 -0.356074,-0.29362 -0.566965,-0.37798 -0.116981,-0.0468 -0.254432,0.0247 -0.377976,0 -0.195342,-0.0391 -0.3737,-0.14067 -0.566965,-0.18899 -0.06111,-0.0153 -0.127873,0.0153 -0.188987,0 -1.909463,-0.47736 0.136486,0.0683 -0.755954,-0.37797 -0.05634,-0.0282 -0.129222,0.0199 -0.188987,0 -0.133635,-0.0446 -0.244342,-0.14445 -0.377975,-0.18899 -0.05976,-0.0199 -0.125992,0 -0.18899,0 -0.322135,0 -0.338134,0.0199 -0.755951,-0.18899 -0.07969,-0.0398 -0.125992,-0.12599 -0.188989,-0.18899 -0.188987,-0.18899 -0.353148,-0.4066 -0.566963,-0.56696 -0.0504,-0.0378 -0.127873,0.0153 -0.188989,0 -0.193262,-0.0483 -0.3737,-0.14067 -0.566965,-0.18899 -0.06111,-0.0153 -0.125992,0 -0.188987,0 -0.188989,-0.063 -0.382002,-0.115 -0.566965,-0.18899 -0.130789,-0.0523 -0.26077,-0.11085 -0.377976,-0.18898 -0.07413,-0.0494 -0.10447,-0.16082 -0.188989,-0.18899 -0.119525,-0.0398 -0.255746,0.0305 -0.377976,0 -0.136657,-0.0342 -0.24434,-0.14445 -0.377975,-0.18899 -0.124921,-0.0416 -1.120164,0 -1.322917,0 -0.063,0 -0.129225,0.0199 -0.188988,0 -0.646234,-0.21541 -0.140636,-0.15676 -0.755952,-0.56697 -0.05242,-0.0349 -0.125993,0 -0.188988,0 -0.125993,0 -0.251985,0 -0.377977,0 -0.377976,0 -0.755952,0 -1.133928,0 -0.188988,0 -0.383619,0.0458 -0.566965,0 -0.136657,-0.0342 -0.244341,-0.14444 -0.377976,-0.18898 -0.119526,-0.0399 -0.273144,0.0699 -0.377976,0 -0.148254,-0.0988 -0.229722,-0.27915 -0.377976,-0.37798 -0.05242,-0.0349 -0.125992,0 -0.188988,0 -0.125992,0 -0.25845,0.0398 -0.377976,0 -0.08452,-0.0282 -0.10447,-0.16082 -0.188988,-0.18899 -0.187867,-0.0626 -0.784356,0.0803 -0.944941,0 -0.159369,-0.0797 -0.235432,-0.27107 -0.377976,-0.37798 -0.330266,-0.24769 -0.563799,-0.1874 -0.944941,-0.37797 -0.57633,-0.28817 0.345649,-0.14982 -0.566964,-0.37798 -0.12223,-0.0305 -0.258449,0.0398 -0.377976,0 -0.169036,-0.0563 -0.218607,-0.29829 -0.377976,-0.37797 -0.05635,-0.0282 -0.132643,0.0282 -0.188988,0 -0.07969,-0.0399 -0.10447,-0.16082 -0.188988,-0.18899 -0.119527,-0.0398 -0.265286,0.0563 -0.377977,0 -0.115255,-0.0576 -0.629808,-0.71391 -0.755952,-0.75595 -0.681406,-0.22714 -1.385913,-0.37798 -2.078869,-0.56697"
       id="path22"
       inkscape:connector-curvature="0" />
    <path
       style="fill:none;stroke:#000000;stroke-width:0.26458332px;stroke-linecap:butt;stroke-linejoin:miter;stroke-opacity:1"
       d="m 192.57887,113.87053 c 0,0.81895 0,1.6379 0,2.45685 0,0.56696 0,1.13393 0,1.70089 0,0.10549 -0.0288,0.85843 0,0.94494 0.0282,0.0845 0.16081,0.10447 0.18899,0.18899 0.0398,0.11953 0,0.25199 0,0.37798 0,0.18152 -0.0323,1.41509 0,1.5119 0.0718,0.21548 0.27639,0.36381 0.37797,0.56697 0.0282,0.0563 -0.0153,0.12787 0,0.18898 0.0483,0.19327 0.14067,0.3737 0.18899,0.56697 0.0249,0.0997 -0.0421,0.50381 0,0.56696 0.0988,0.14826 0.27914,0.22972 0.37798,0.37798 0.0271,0.0406 0,0.63411 0,0.75595 0,0.69296 0,1.38591 0,2.07887"
       id="path24"
       inkscape:connector-curvature="0" />
    <path
       style="fill:none;stroke:#000000;stroke-width:0.26458332px;stroke-linecap:butt;stroke-linejoin:miter;stroke-opacity:1"
       d="m 185.58631,116.51637 c 0.12599,0.62996 0.15843,1.28612 0.37797,1.88988 0.0481,0.13238 0.24719,0.13667 0.37798,0.18899 0.18496,0.074 0.38879,0.0999 0.56696,0.18899 0.15547,0.0777 0.61618,0.66277 0.75596,0.75595 0.0524,0.0349 0.13264,-0.0282 0.18898,0 0.0797,0.0398 0.10448,0.16081 0.18899,0.18898 0.11953,0.0399 0.25199,0 0.37798,0 0.32213,0 0.33813,-0.0199 0.75595,0.18899 0.15937,0.0797 0.21861,0.29829 0.37798,0.37798 0.0563,0.0282 0.14444,-0.0446 0.18899,0 0.39102,0.39102 -0.59754,-0.0153 0.18898,0.37797 0.0564,0.0282 0.12599,0 0.18899,0 0.12599,0 0.25199,0 0.37798,0 0.063,0 0.12599,0 0.18899,0 0.063,0 0.18898,-0.063 0.18898,0 0,0.063 -0.25198,0 -0.18898,0 0.12599,0 0.25198,0 0.37797,0 0.12599,0 0.25845,-0.0398 0.37798,0 0.83423,0.27808 -0.68663,0.18899 0.56696,0.18899"
       id="path26"
       inkscape:connector-curvature="0" />
    <path
       style="fill:none;stroke:#000000;stroke-width:0.26458332px;stroke-linecap:butt;stroke-linejoin:miter;stroke-opacity:1"
       d="m 59.909225,150.15625 c 0.566965,0 1.13393,0 1.700893,0 0.188989,0 0.379436,-0.0234 0.566965,0 0.318738,0.0398 0.625686,0.15351 0.94494,0.18899 0.438275,0.0487 0.887945,-0.0725 1.322917,0 0.196501,0.0328 0.3737,0.14067 0.566965,0.18899 0.159996,0.04 0.559731,0 0.755952,0 0.440973,0 0.881943,0 1.322916,0"
       id="path28"
       inkscape:connector-curvature="0" />
    <path
       style="fill:none;stroke:#000000;stroke-width:0.26458332px;stroke-linecap:butt;stroke-linejoin:miter;stroke-opacity:1"
       d="m 77.674107,151.29018 c 0.503967,0 1.007935,0 1.511903,0 0.314981,0 0.632394,0.0391 0.944941,0 1.900584,-0.23758 -0.459732,-0.097 0.94494,-0.37798 0.18532,-0.0371 0.377976,0 0.566965,0 0.314982,0 0.62996,0 0.944941,0 0.063,0 0.127873,0.0153 0.188987,0 0.193265,-0.0483 0.373703,-0.14067 0.566965,-0.18899 0.12223,-0.0306 0.251984,0 0.377976,0 0.314981,0 0.629959,0 0.944941,0"
       id="path30"
       inkscape:connector-curvature="0" />
    <path
       style="fill:none;stroke:#000000;stroke-width:0.26458332px;stroke-linecap:butt;stroke-linejoin:miter;stroke-opacity:1"
       d="m 96.950891,151.66815 c 0.251984,0 0.505511,0.0278 0.755952,0 2.346947,-0.26077 -0.711544,-0.16516 2.267857,-0.37797 0.43985,-0.0314 0.88195,0 1.32292,0 0.37797,0 0.76495,0.082 1.13393,0 0.52885,0.26914 0.45037,-0.49058 0.75595,-0.56697 1.62634,-0.40658 -0.39748,0.51697 0.94494,-0.37797 0.0327,-0.0218 1.19785,0 1.32292,0 1.13392,0 2.26785,0 3.40178,0"
       id="path32"
       inkscape:connector-curvature="0" />
    <path
       style="fill:none;stroke:#000000;stroke-width:0.26458332px;stroke-linecap:butt;stroke-linejoin:miter;stroke-opacity:1"
       d="m 121.51934,152.61309 c 1.07094,0 2.14187,0 3.2128,0 3.59078,0 7.18155,0 10.77232,0 1.19693,0 2.39385,0 3.59078,0 0.31498,0 0.62996,0 0.94494,0 0.063,0 0.18898,-0.063 0.18898,0 0,0.063 -0.12599,0 -0.18898,0"
       id="path34"
       inkscape:connector-curvature="0" />
    <path
       style="fill:none;stroke:#000000;stroke-width:0.26458332px;stroke-linecap:butt;stroke-linejoin:miter;stroke-opacity:1"
       d="m 152.89137,131.8244 c -0.88195,0 -1.76389,0 -2.64584,0 -0.18898,0 -0.38054,-0.0311 -0.56696,0 -0.77432,0.12906 -0.39183,0.15213 -0.94494,0.56697 -0.11269,0.0845 -0.26529,0.10447 -0.37798,0.18898 -0.14254,0.10691 -0.22972,0.27915 -0.37797,0.37798 -0.0524,0.035 -0.126,0 -0.18899,0 -0.18899,0 -0.39326,-0.0744 -0.56697,0 -0.28951,0.12408 -0.48586,0.40491 -0.75595,0.56697 -0.0954,0.0572 -0.77809,-0.0556 -0.94494,0 -0.13363,0.0445 -0.23985,0.16136 -0.37797,0.18898 -0.18532,0.0371 -0.37798,0 -0.56697,0 -0.063,0 -0.13264,-0.0282 -0.18899,0 -0.15937,0.0797 -0.20511,0.33477 -0.37797,0.37798 -0.18899,0 -0.37798,0 -0.56697,0 -0.063,0.063 -0.10447,0.16081 -0.18899,0.18899 -0.11952,0.0398 -0.26099,-0.0468 -0.37797,0 -0.21089,0.0844 -0.36381,0.2764 -0.56697,0.37798 -0.0563,0.0282 -0.12922,-0.0199 -0.18898,0 -0.13364,0.0445 -0.23985,0.16136 -0.37798,0.18898 -0.18532,0.0371 -0.37798,0 -0.56696,0 -0.063,0 -0.13658,-0.0349 -0.18899,0 -0.14826,0.0988 -0.22973,0.27914 -0.37798,0.37798 -0.079,0.0527 -0.97837,-0.0519 -1.13393,0 -0.0845,0.0282 -0.10447,0.16081 -0.18899,0.18899 -0.56696,0.18898 -0.18898,-0.0945 -0.56696,0 -1.90946,0.47736 0.13648,-0.0683 -0.75595,0.37797 -0.0564,0.0282 -0.13264,-0.0282 -0.18899,0 -0.0797,0.0398 -0.1093,0.14915 -0.18899,0.18899 -0.11269,0.0564 -0.26528,-0.0563 -0.37797,0 -0.20316,0.10158 -0.38526,0.2417 -0.56697,0.37798 -0.0713,0.0534 -0.10447,0.16081 -0.18899,0.18898 -0.11952,0.0399 -0.25845,-0.0398 -0.37797,0 -0.0845,0.0282 -0.126,0.126 -0.18899,0.18899 -0.006,0.006 -0.67962,0.71779 -0.75595,0.75596 -0.11269,0.0563 -0.26529,-0.0563 -0.37798,0 -0.0797,0.0398 -0.1093,0.14914 -0.18899,0.18898 -0.11269,0.0564 -0.26528,-0.0563 -0.37797,0 -0.1348,0.0674 -0.24319,0.31058 -0.37798,0.37798 -0.0563,0.0282 -0.13264,-0.0282 -0.18899,0 -0.0797,0.0398 -0.1093,0.14915 -0.18899,0.18899 -0.0563,0.0282 -0.13264,-0.0282 -0.18898,0 -0.15937,0.0797 -0.21861,0.29829 -0.37798,0.37798 -0.0564,0.0282 -0.13264,-0.0282 -0.18899,0 -0.0797,0.0398 -0.10447,0.16081 -0.18899,0.18898 -0.11952,0.0399 -0.26528,-0.0563 -0.37797,0 -0.75305,0.37653 -8e-4,0.37819 -0.75596,0.56697 -0.12223,0.0306 -0.27959,-0.0787 -0.37797,0 -0.24596,0.19676 -0.34424,0.53323 -0.56697,0.75595 -0.001,0.001 -0.56064,-0.002 -0.56696,0 -0.34206,-0.11391 -0.35148,0.30615 -0.56696,0.37797 -0.11953,0.0399 -0.25575,-0.0306 -0.37798,0 -0.13666,0.0342 -0.24132,0.15483 -0.37798,0.18899 -0.12223,0.0306 -0.26099,-0.0468 -0.37797,0 -0.21089,0.0844 -0.3582,0.28851 -0.56697,0.37798 -0.23874,0.10232 -0.50125,0.13805 -0.75595,0.18899 -0.0618,0.0123 -0.13657,-0.035 -0.18899,0 -0.14825,0.0988 -0.22972,0.27914 -0.37797,0.37797 -0.10484,0.0699 -0.26529,-0.0563 -0.37798,0 -0.0797,0.0399 -0.10447,0.16082 -0.18899,0.18899 -0.20233,0.0674 -1.18373,-0.0696 -1.32291,0 -0.28173,0.14087 -0.48248,0.41069 -0.75596,0.56697 -0.17296,0.0988 -0.38386,0.11051 -0.56696,0.18899 -0.25895,0.11097 -0.50397,0.25198 -0.75595,0.37797 -0.126,0.063 -0.25719,0.11652 -0.37798,0.18899 -0.19477,0.11686 -0.36381,0.2764 -0.56696,0.37797 -0.17819,0.0891 -0.38879,0.0999 -0.56697,0.18899 -0.20315,0.10158 -0.34661,0.32289 -0.56696,0.37798 -0.30558,0.0764 -0.65002,-0.1106 -0.94494,0 -0.25026,0.0938 -0.35315,0.4066 -0.56697,0.56696 -0.0504,0.0378 -0.12599,0 -0.18899,0 -0.12599,0 -0.26099,-0.0468 -0.37797,0 -0.21089,0.0844 -0.36381,0.2764 -0.56697,0.37798 -0.0563,0.0282 -0.12922,-0.0199 -0.18898,0 -0.13364,0.0445 -0.24435,0.14444 -0.37798,0.18899 -0.10948,0.0365 -0.59218,0 -0.75595,0 -0.126,0 -0.26529,-0.0564 -0.37798,0 -0.75305,0.37652 -7.9e-4,0.37818 -0.75595,0.56696 -0.12223,0.0306 -0.25199,0 -0.37798,0 -0.0706,0 -1.26872,-0.0181 -1.32291,0 -0.21548,0.0718 -0.3722,0.26112 -0.56697,0.37798 -0.24158,0.14495 -0.53057,0.20894 -0.75595,0.37798 -0.14254,0.1069 -0.21861,0.29829 -0.37798,0.37797 -0.11269,0.0563 -0.25198,0 -0.37797,0 -0.12599,0.12599 -0.22972,0.27914 -0.37798,0.37798 -0.0524,0.0349 -0.12599,0 -0.18899,0 -0.063,0 -0.12599,0 -0.18899,0 -0.50396,0 -1.00793,0 -1.5119,0 -0.18899,0 -0.38768,-0.0598 -0.56696,0 -0.0845,0.0282 -0.10448,0.16081 -0.18899,0.18898 -0.11953,0.0399 -0.26529,-0.0563 -0.37798,0 -0.15937,0.0797 -0.25198,0.25199 -0.37798,0.37798 -0.18898,0.18899 -0.37797,0.37798 -0.56696,0.56696 -0.063,0.063 -0.11486,0.13957 -0.18899,0.18899 -0.1172,0.0781 -0.27837,0.0894 -0.37797,0.18899 -0.11295,0.11295 0.20427,0.37798 -0.18899,0.37798 -0.0891,0 -0.1093,-0.14915 -0.18899,-0.18899 -0.0563,-0.0282 -0.13264,0.0282 -0.18899,0 -0.0797,-0.0398 -0.10447,-0.16082 -0.18899,-0.18899 -0.11952,-0.0398 -0.25198,0 -0.37797,0 -0.75259,0 -0.38134,0 -1.13393,0 -0.063,0 -0.12787,-0.0153 -0.18899,0 -0.19326,0.0483 -0.37162,0.14992 -0.56696,0.18899 -0.12355,0.0247 -0.25845,-0.0398 -0.37798,0 -0.32262,0.10754 -0.12599,0.18899 -0.18899,0.37798 -0.0445,0.13363 -0.0894,0.27837 -0.18899,0.37797 -0.0445,0.0446 -0.12599,0 -0.18898,0 -0.12599,0 -0.26529,-0.0563 -0.37798,0 -0.22679,0.11339 -0.34018,0.45357 -0.56696,0.56697 -0.0563,0.0282 -0.13265,-0.0282 -0.18899,0 -0.0797,0.0398 -0.10931,0.14914 -0.18899,0.18899 -0.0564,0.0282 -0.24368,-0.0313 -0.18899,0 0.48922,0.27955 1.00794,0.50396 1.51191,0.75595"
       id="path36"
       inkscape:connector-curvature="0" />
    <path
       style="fill:none;stroke:#000000;stroke-width:0.26458332px;stroke-linecap:butt;stroke-linejoin:miter;stroke-opacity:1"
       d="m 59.909225,135.0372 c 0.466619,-0.21217 0.849654,-0.18899 1.322917,-0.18899 0.125992,0 0.254431,-0.0247 0.377976,0 0.195344,0.0391 0.373702,0.14068 0.566965,0.18899 0.06112,0.0153 0.125991,0 0.188989,0 0.188986,0 0.377976,0 0.566962,0 0.188989,0 0.380548,-0.0311 0.566965,0 0.511546,-0.3212 0.488683,0.28889 0.755952,0.37798 0.239053,0.0797 0.511492,-0.0611 0.755954,0 0.136657,0.0342 0.24434,0.14444 0.377976,0.18898 0.161898,0.054 0.589222,-0.0417 0.755952,0 0.912614,0.22816 -0.0094,0.0898 0.566965,0.37798 0.05634,0.0282 0.129225,-0.0199 0.188986,0 0.133636,0.0445 0.244343,0.14444 0.377976,0.18899 0.283482,0.0945 0.188989,-0.18899 0.566965,0 0.159369,0.0797 0.229722,0.27914 0.377976,0.37797 0.08822,0.0588 0.797128,-0.0493 0.944941,0 0.548944,0.18299 0.263699,0.19778 0.755951,0.56697 0.112692,0.0845 0.260771,0.11085 0.377979,0.18899 0.148254,0.0988 0.218606,0.29829 0.377975,0.37797 0.05635,0.0282 0.132641,-0.0282 0.188987,0 0.07968,0.0399 0.109305,0.14915 0.188989,0.18899 0.05635,0.0282 0.144444,-0.0445 0.188987,0 0.09961,0.0996 0.110852,0.26077 0.188989,0.37798 0.408022,0.61203 -0.02349,-0.0787 0.377976,0.18899 0.148254,0.0988 0.229722,0.27914 0.377976,0.37797 0.05242,0.035 0.127873,-0.0153 0.188989,0 0.193262,0.0483 0.37162,0.14992 0.566965,0.18899 0.123545,0.0247 0.258448,-0.0398 0.377976,0 0.169034,0.0563 0.229722,0.27914 0.377976,0.37798 0.117205,0.0781 0.26077,0.11085 0.377975,0.18898 0.07413,0.0494 0.109305,0.14915 0.18899,0.18899 0.05634,0.0282 0.129222,-0.0199 0.188986,0 0.133636,0.0446 0.244343,0.14445 0.377976,0.18899 0.05976,0.0199 0.136573,-0.0349 0.188989,0 0.148254,0.0988 0.251984,0.25199 0.377976,0.37798 0.063,0.063 0.109305,0.14914 0.188989,0.18898 0.112689,0.0563 0.273143,-0.0699 0.377976,0 0.148254,0.0988 0.225187,0.28631 0.377976,0.37798 1.140767,0.68446 0.08044,-0.0992 0.944941,0.18899 0.102288,0.0341 0.442804,0.48419 0.566962,0.56696 0.117208,0.0781 0.260771,0.11085 0.377979,0.18899 0.07412,0.0494 0.11486,0.13957 0.188986,0.18899 0.117205,0.0781 0.265287,0.10447 0.377976,0.18899 0.142544,0.10691 0.212542,0.3118 0.377976,0.37798 0.175471,0.0702 0.393258,-0.0745 0.566965,0 0.289512,0.12407 0.513979,0.36531 0.755951,0.56696 0.136883,0.11407 0.212543,0.3118 0.377979,0.37797 0.175469,0.0702 0.387673,-0.0598 0.566962,0 0.21548,0.0718 0.372198,0.26112 0.566965,0.37798 0.120791,0.0725 0.265285,0.10447 0.377976,0.18899 0.142544,0.10691 0.229722,0.27914 0.377976,0.37797 0.104833,0.0699 0.255746,-0.0306 0.377976,0 0.193265,0.0483 0.388786,0.0999 0.566965,0.18899 0.203157,0.10158 0.372197,0.26112 0.566965,0.37798 0.12079,0.0725 0.265284,0.10447 0.377976,0.18899 0.142544,0.10691 0.229721,0.27914 0.377975,0.37797 0.05242,0.035 0.127874,-0.0153 0.18899,0 0.193262,0.0483 0.396142,0.0865 0.566962,0.18899 0.768691,0.76869 0.07741,0.25559 0.566965,0.37798 0.193262,0.0483 0.373703,0.14067 0.566965,0.18899 0.177872,0.0445 0.389094,-0.0445 0.566965,0 0.912612,0.22815 -0.0094,0.0898 0.566963,0.37797 0.05635,0.0282 0.125991,0 0.188989,0 0.125992,0 0.25845,-0.0398 0.377976,0 0.08452,0.0282 0.125991,0.12599 0.188989,0.18899 0.125992,0 0.255743,-0.0306 0.377976,0 0.273314,0.0683 0.494374,0.27334 0.755951,0.37798 0.184962,0.074 0.38386,0.11051 0.566965,0.18898 0.258948,0.11098 0.494374,0.27335 0.755952,0.37798 0.05849,0.0234 0.129225,-0.0199 0.188989,0 0.133633,0.0445 0.24434,0.14444 0.377976,0.18899 0.221604,0.0739 0.547828,-0.10406 0.755951,0 0.15937,0.0797 0.229722,0.27914 0.377976,0.37797 0.104834,0.0699 0.258451,-0.0398 0.377976,0 0.133636,0.0445 0.244343,0.14445 0.377976,0.18899 0.05976,0.0199 0.125995,0 0.188989,0 0.125992,0 0.251984,0 0.377976,0 0.188989,0 0.383619,-0.0458 0.566965,0 0.08643,0.0216 0.114861,0.13957 0.188987,0.18899 0.117207,0.0781 0.241321,0.15482 0.377978,0.18899 0.12223,0.0306 0.255744,-0.0306 0.377976,0 0.136657,0.0342 0.241318,0.15482 0.377976,0.18899 0.183345,0.0458 0.377975,0 0.566965,0 0.05283,0 0.915371,-0.0148 0.944938,0 0.159369,0.0797 0.229722,0.27914 0.377978,0.37797 0.104831,0.0699 0.265285,-0.0563 0.377976,0 0.07969,0.0399 0.109302,0.14915 0.188987,0.18899 0.112691,0.0564 0.265287,-0.0563 0.377976,0 0.07968,0.0398 0.25491,0.12906 0.188989,0.18899 -0.699201,0.63564 -1.511906,1.13392 -2.26786,1.70089"
       id="path38"
       inkscape:connector-curvature="0" />
    <path
       style="fill:none;stroke:#000000;stroke-width:0.26458332px;stroke-linecap:butt;stroke-linejoin:miter;stroke-opacity:1"
       d="m 139.85119,130.87946 c 0.25198,0.12599 0.49438,0.27335 0.75595,0.37798 0.0585,0.0234 0.12599,0 0.18899,0 0.12599,0 0.25198,0 0.37798,0 0.30047,0 0.88584,-0.0496 1.13392,0 0.13813,0.0276 0.24435,0.14444 0.37798,0.18899 0.11338,0.0378 0.79414,0 0.94494,0 0.75595,0 1.51191,0 2.26786,0 1.07093,0 2.14186,0 3.2128,0 0.31498,0 0.62996,0 0.94494,0 0.12599,0 0.25198,0 0.37797,0 0.063,0 0.13265,0.0282 0.18899,0 0.0797,-0.0399 0.1093,-0.14915 0.18899,-0.18899 0.0563,-0.0282 0.12599,0 0.18899,0 0.063,0 0.12599,0 0.18898,0 0.37798,0 0.75596,0 1.13393,0 0.94494,0 1.88988,0 2.83482,0 0.37798,0 0.75596,0 1.13393,0 0.126,0 0.25575,0.0306 0.37798,0 0.13666,-0.0342 0.24132,-0.15483 0.37798,-0.18899 0.12223,-0.0306 0.25198,0 0.37797,0 0.31498,0 0.62996,0 0.94494,0 0.44098,0 0.88195,0 1.32292,0 0.12599,0 0.25198,0 0.37797,0 0.063,0 0.13658,0.0349 0.18899,0 0.14826,-0.0988 0.22973,-0.27914 0.37798,-0.37797 0.0781,-0.0521 0.61941,0.0455 0.75595,0 0.13364,-0.0446 0.24434,-0.14445 0.37798,-0.18899 0.56696,-0.18899 -0.37798,0.37797 0.56696,0 0.21089,-0.0844 0.36381,-0.2764 0.56697,-0.37798 0.0563,-0.0282 0.12599,0 0.18898,0 0.126,0 0.25199,0 0.37798,0 0.44097,0 0.88195,0 1.32292,0 0.12599,0 0.25198,0 0.37797,0 0.063,0 0.20677,0.0604 0.18899,0 -0.32045,-1.08953 -0.75595,-2.14187 -1.13393,-3.2128"
       id="path40"
       inkscape:connector-curvature="0" />
    <path
       style="fill:none;stroke:#000000;stroke-width:0.26458332px;stroke-linecap:butt;stroke-linejoin:miter;stroke-opacity:1"
       d="m 185.39732,136.36012 c 0.25198,0.18898 0.50397,0.37797 0.75595,0.56696 0.063,0 0.13657,-0.0349 0.18899,0 0.14826,0.0988 0.22972,0.27914 0.37798,0.37798 0.0524,0.0349 0.12599,0 0.18898,0 0.18899,0 0.38768,0.0598 0.56697,0 0.10395,-0.0346 0.28062,-0.24053 0.18899,-0.37798 -0.0988,-0.14825 -0.27107,-0.23543 -0.37798,-0.37798 -0.46425,-0.0674 -0.0785,-0.4012 -0.18899,-0.56696 -0.14825,-0.22238 -0.37797,-0.37798 -0.56696,-0.56696 -0.063,-0.063 -0.10447,-0.16082 -0.18899,-0.18899 -0.11953,-0.0398 -0.37798,0.12599 -0.37798,0 0,-0.12599 0.50397,0 0.37798,0 -0.25199,0 -0.50397,0 -0.75595,0 -0.126,0 -0.25845,-0.0398 -0.37798,0 -0.0845,0.0282 -0.11486,0.13957 -0.18899,0.18899 -0.1172,0.0781 -0.24434,0.14444 -0.37797,0.18898 -0.0598,0.0199 -0.14445,-0.0445 -0.18899,0 -0.13252,0.13252 0.14286,0.3503 0.18899,0.37798 0.24158,0.14495 0.50397,0.25199 0.75595,0.37798 z"
       id="path42"
       inkscape:connector-curvature="0" />
    <path
       style="fill:none;stroke:#000000;stroke-width:0.26458332px;stroke-linecap:butt;stroke-linejoin:miter;stroke-opacity:1"
       d="m 147.78869,132.01339 c 4.26006,-0.83276 2.04439,-0.97942 3.2128,0.18899 0.063,0.063 0.16081,0.10447 0.18898,0.18899 0.0399,0.11952 0,0.25198 0,0.37797 0,0.063 -0.0349,0.13658 0,0.18899 0.0988,0.14826 0.27914,0.22972 0.37798,0.37798 0.0349,0.0524 -0.0199,0.12922 0,0.18899 0.0445,0.13363 0.14444,0.24434 0.18899,0.37797 0.0367,0.11005 0,1.00389 0,1.13393 0,0.69296 0,1.38591 0,2.07887 0,0.15826 -0.0359,0.80122 0,0.94494 0.0342,0.13666 0.14444,0.24434 0.18899,0.37798 0.0398,0.11952 0,0.25198 0,0.37797 0,0.12599 0,0.25199 0,0.37798 0,0.063 -0.0153,0.12787 0,0.18899 0.0483,0.19326 0.14992,0.37162 0.18898,0.56696 0.0466,0.23285 -0.0711,0.73154 0,0.94494 0.0667,0.2001 0.47946,0.2765 0.37798,0.37798 -0.063,0.063 -0.12599,-0.12599 -0.18899,-0.18899"
       id="path44"
       inkscape:connector-curvature="0" />
    <path
       style="fill:none;stroke:#000000;stroke-width:0.26458332px;stroke-linecap:butt;stroke-linejoin:miter;stroke-opacity:1"
       d="m 143.44196,134.09226 c 0.31498,0.31498 0.58858,0.67767 0.94494,0.94494 0.15937,0.11953 0.38879,0.0999 0.56697,0.18899 0.0797,0.0398 0.10447,0.16081 0.18899,0.18899 0.11952,0.0398 0.25574,-0.0306 0.37797,0 0.45746,0.11436 0.37943,0.28457 0.75595,0.56696 0.11269,0.0845 0.25719,0.11652 0.37798,0.18899 0.19477,0.11686 0.3722,0.26112 0.56696,0.37797 0.24158,0.14495 0.52155,0.22171 0.75596,0.37798 0.0741,0.0494 0.11486,0.13957 0.18898,0.18899 0.11721,0.0781 0.26529,0.10447 0.37798,0.18899 0.14254,0.10691 0.25198,0.25198 0.37798,0.37797 0.063,0.063 0.1093,0.14915 0.18899,0.18899 0.11269,0.0564 0.27314,-0.0699 0.37797,0 0.14826,0.0988 0.25199,0.25198 0.37798,0.37798 0.063,0.063 0.10447,0.16081 0.18899,0.18899 0.28348,0.0945 0.66145,-0.0945 0.94494,0 0.12797,0.0427 0.4226,0.49478 0.56696,0.56696 0.0431,0.0215 0.56162,-0.0294 0.56696,0 0.12448,0.68459 0.12599,1.38591 0.18899,2.07887"
       id="path46"
       inkscape:connector-curvature="0" />
    <path
       style="fill:none;stroke:#000000;stroke-width:0.26458332px;stroke-linecap:butt;stroke-linejoin:miter;stroke-opacity:1"
       d="m 49.703868,131.25744 c -0.125992,0.31498 -0.311444,0.61228 -0.377976,0.94494 -0.01236,0.0618 0.125992,0 0.188989,0 0.314979,0 0.62996,0 0.944941,0 0.322135,0 0.338132,0.0199 0.755952,-0.18899 0.07968,-0.0398 0.109304,-0.14915 0.188986,-0.18899 0.04236,-0.0212 0.711044,0 0.755954,0 0.377976,0 0.755952,0 1.133928,0 2.456847,0 4.913691,0 7.370535,0 0.944941,0 1.889881,0 2.834822,0 0.188989,0 0.377976,0 0.566965,0 0.125992,0 0.39987,-0.12407 0.377976,0 -0.193995,1.09931 -0.629962,2.14187 -0.944941,3.2128"
       id="path48"
       inkscape:connector-curvature="0" />
    <path
       style="fill:none;stroke:#000000;stroke-width:0.26458332px;stroke-linecap:butt;stroke-linejoin:miter;stroke-opacity:1"
       d="m 192.57887,113.87053 c -0.48594,-0.21496 -1.74942,-1.12422 -2.64584,-0.94494 -0.19534,0.0391 -0.3737,0.14068 -0.56696,0.18899 -0.0611,0.0153 -0.12599,0 -0.18899,0 -0.18899,0 -0.37797,0 -0.56696,0 -0.25199,0 -0.50397,0 -0.75596,0 -0.31498,0 -0.65001,-0.1106 -0.94494,0 -0.25025,0.0939 -0.35314,0.4066 -0.56696,0.56697 -0.0504,0.0378 -0.12787,-0.0153 -0.18899,0 -0.19326,0.0483 -0.37162,0.14992 -0.56696,0.18898 -0.18755,0.0375 -0.74638,0 -0.94494,0 -0.063,0 -0.126,0 -0.18899,0 -0.063,0 -0.13264,-0.0282 -0.18899,0 -0.15937,0.0797 -0.21861,0.2983 -0.37798,0.37798 -0.0563,0.0282 -0.12599,0 -0.18898,0 -0.063,0 -0.126,0 -0.18899,0 -0.31498,0 -0.62996,0 -0.94494,0 -0.18899,0 -0.38768,-0.0598 -0.56697,0 -0.0845,0.0282 -0.10447,0.16081 -0.18898,0.18899 -0.11058,0.0369 -0.97172,0 -1.13393,0 -0.37798,0 -0.75596,0 -1.13393,0 -0.12599,0 -0.25199,0 -0.37798,0 -0.063,0 -0.12787,0.0153 -0.18899,0 -0.19326,-0.0483 -0.37162,-0.14992 -0.56696,-0.18899 -0.18754,-0.0375 -0.74638,0 -0.94494,0 -0.81895,0 -1.6379,0 -2.45685,0 -0.31497,0 -0.62996,0 -0.94494,0 -0.12599,0 -0.25198,0 -0.37797,0 -0.063,0 -0.12923,0.0199 -0.18899,0 -0.13364,-0.0445 -0.24434,-0.14444 -0.37798,-0.18899 -0.11952,-0.0398 -0.25198,0 -0.37797,0 -0.50397,0 -1.00794,0 -1.51191,0 -0.18899,0 -0.38362,0.0458 -0.56696,0 -0.13666,-0.0342 -0.26077,-0.11085 -0.37798,-0.18899 -0.0741,-0.0494 -0.10256,-0.16738 -0.18899,-0.18898 -0.18898,0 -0.37797,0 -0.56696,0 -0.063,-0.063 -0.10447,-0.16082 -0.18899,-0.18899 -0.17929,-0.0598 -0.37797,0 -0.56696,0 -0.37798,0 -0.75596,0 -1.13393,0 -0.15826,0 -0.80122,0.0359 -0.94494,0 -0.13666,-0.0342 -0.26077,-0.11085 -0.37798,-0.18899 -0.0741,-0.0494 -0.1093,-0.14915 -0.18899,-0.18899 -0.0575,-0.0287 -0.62545,0 -0.75595,0 -0.50397,0 -1.00793,0 -1.5119,0 -0.37798,0 -0.75596,0 -1.13393,0 -0.1305,0 -0.69849,-0.0287 -0.75595,0 -0.0797,0.0398 -0.126,0.12599 -0.18899,0.18899"
       id="path50"
       inkscape:connector-curvature="0" />
    <path
       style="fill:none;stroke:#000000;stroke-width:0.26458332px;stroke-linecap:butt;stroke-linejoin:miter;stroke-opacity:1"
       d="m 147.78869,132.01339 -50.459823,8.31548"
       id="path52"
       inkscape:connector-curvature="0" />
    <path
       style="fill:none;stroke:#000000;stroke-width:0.26458332px;stroke-linecap:butt;stroke-linejoin:miter;stroke-opacity:1"
       d="m 111.31399,146.94345 c 0.56696,-0.25199 1.14595,-0.47848 1.70089,-0.75595 0.0563,-0.0282 -0.12599,0 -0.18899,0 -0.1156,0 -0.92481,-0.0161 -0.94494,0 -1.47294,1.17835 0.48203,0.71029 -1.5119,0.37798 -0.0879,-0.0147 -0.12599,0.12599 -0.18899,0.18898 -0.12599,0.12599 -0.25199,0.25199 -0.37798,0.37798 -0.063,0 -0.13657,-0.035 -0.18899,0 -0.14825,0.0988 -0.22972,0.27914 -0.37797,0.37797 -0.0524,0.0349 -0.126,0 -0.18899,0 -0.12599,0 -0.25845,-0.0398 -0.37798,0 -0.0845,0.0282 -0.10447,0.16082 -0.18898,0.18899 -0.11953,0.0398 -0.25199,0 -0.37798,0 -0.063,0 -0.13264,-0.0282 -0.18899,0 -0.40238,0.20119 0.0244,0.17679 -0.37798,0.37798 -0.0563,0.0282 -0.12599,0 -0.18898,0 -0.12599,0 -0.25845,-0.0398 -0.37798,0 -0.0845,0.0282 -0.1093,0.14914 -0.18899,0.18899 -0.17818,0.0891 -0.382,0.115 -0.56696,0.18898 -0.26158,0.10464 -0.48868,0.28889 -0.75595,0.37798 -0.0598,0.0199 -0.13265,-0.0282 -0.18899,0 -0.20316,0.10158 -0.36381,0.2764 -0.56697,0.37798 -0.0926,0.0463 -1.02306,-0.0277 -1.13393,0 -0.0864,0.0216 -0.10447,0.16081 -0.18898,0.18899 -0.11953,0.0398 -0.261,-0.0468 -0.37798,0 -0.21089,0.0844 -0.34857,0.31557 -0.56696,0.37797 -0.24229,0.0692 -0.50397,0 -0.75596,0 -0.063,0 -0.13264,-0.0282 -0.18898,0 -0.0797,0.0398 -0.10931,0.14915 -0.18899,0.18899 -0.0563,0.0282 -0.12599,0 -0.18899,0 -0.12599,0.063 -0.26077,0.11085 -0.37798,0.18899 -0.0741,0.0494 -0.1093,0.14915 -0.18898,0.18899 -0.0563,0.0282 -0.126,0 -0.18899,0 -0.126,0 -0.25575,-0.0306 -0.37798,0 -0.136657,0.0342 -0.24434,0.14444 -0.377975,0.18899 -0.05977,0.0199 -0.125992,0 -0.188987,0 -0.188989,0.063 -0.388787,0.0999 -0.566965,0.18898 -0.159369,0.0797 -0.218607,0.29829 -0.377976,0.37798 -0.169037,0.0845 -0.397928,-0.0845 -0.566965,0 -0.125992,0.12599 -0.251984,0.25198 -0.377976,0.37797 -0.063,0 -0.132643,-0.0282 -0.188989,0 -0.07968,0.0399 -0.102558,0.16738 -0.188987,0.18899 -0.04276,0.0107 -1.091837,-0.0281 -1.13393,0 -0.148254,0.0988 -0.212539,0.3118 -0.377975,0.37798 -0.175472,0.0702 -0.381646,-0.0371 -0.566965,0 -0.138126,0.0276 -0.24434,0.14444 -0.377976,0.18899 -0.05976,0.0199 -0.136573,-0.0349 -0.188987,0 -0.148254,0.0988 -0.235434,0.27107 -0.377976,0.37797 -0.330266,0.2477 -0.5638,0.18741 -0.94494,0.37798 -0.07968,0.0398 -0.109305,0.14914 -0.18899,0.18899 -0.112691,0.0563 -0.255746,-0.0306 -0.377975,0 -0.193263,0.0483 -0.396143,0.0865 -0.566966,0.18899 -0.152786,0.0917 -0.229721,0.27914 -0.377975,0.37797 -0.07601,0.0507 -1.049227,-0.0508 -1.133928,0 -0.194767,0.11686 -0.217368,0.40636 -0.377976,0.56697 -0.04454,0.0445 -0.132643,-0.0282 -0.188989,0 -0.07968,0.0398 -0.104471,0.16081 -0.188989,0.18899 -0.119526,0.0398 -0.265285,-0.0564 -0.377976,0 -0.159369,0.0797 -0.229722,0.27913 -0.377976,0.37797 -0.05242,0.0349 -0.132643,-0.0282 -0.188986,0 -0.07968,0.0398 -0.102561,0.16738 -0.188989,0.18899 -0.183346,0.0458 -0.38362,-0.0458 -0.566965,0 -0.08643,0.0216 -0.125992,0.12599 -0.188987,0.18899 -0.125992,0.12599 -0.218609,0.29829 -0.377976,0.37797 -0.112691,0.0564 -0.255746,-0.0306 -0.377978,0 -0.29591,0.074 -0.853901,0.51096 -1.133928,0.56697 -0.185317,0.0371 -0.391493,-0.0702 -0.566965,0 -0.165436,0.0662 -0.251984,0.25198 -0.377976,0.37797 -0.06299,0.063 -0.102557,0.16738 -0.188986,0.18899 -0.366692,0.0917 -0.782987,-0.14037 -1.13393,0 -0.165436,0.0662 -0.251984,0.25199 -0.377976,0.37798 -0.063,0.063 -0.102558,0.16738 -0.188989,0.18899 -0.183343,0.0458 -0.393256,-0.0744 -0.566963,0 -0.289512,0.12407 -0.485859,0.4049 -0.755954,0.56696 -0.05402,0.0324 -0.125992,0 -0.188987,0 -0.125991,0 -0.260995,-0.0468 -0.377975,0 -0.468056,-0.10477 -0.474226,0.4261 -0.755955,0.56697 -0.178178,0.0891 -0.388784,0.0999 -0.566962,0.18898 -0.07968,0.0399 -0.109305,0.14915 -0.188989,0.18899 -0.05635,0.0282 -0.132644,-0.0282 -0.188987,0 -0.07968,0.0398 -0.104471,0.16081 -0.188989,0.18899 -0.119526,0.0398 -0.265284,-0.0564 -0.377976,0 -0.159369,0.0797 -0.229722,0.27914 -0.377976,0.37797 -0.0519,0.0346 -0.715166,-0.0136 -0.755954,0 -0.08452,0.0282 -0.104468,0.16082 -0.188986,0.18899 -0.119529,0.0398 -0.251984,0 -0.377976,0 -0.063,0 -0.132644,-0.0282 -0.188989,0 -0.07968,0.0398 -0.114861,0.13957 -0.188987,0.18899 -0.117208,0.0781 -0.260771,0.11085 -0.377979,0.18899 -0.07413,0.0494 -0.104468,0.16081 -0.188986,0.18899 -0.119528,0.0398 -0.251984,0 -0.377976,0 -0.125992,0.12599 -0.229722,0.27914 -0.377976,0.37797 -0.05242,0.035 -0.127873,-0.0153 -0.188989,0 -0.193262,0.0483 -0.37162,0.14992 -0.566965,0.18899 -0.123545,0.0247 -0.260996,-0.0468 -0.377976,0 -0.789284,0.31571 -0.348228,0.26117 -0.755951,0.56697 -0.181708,0.13628 -0.363808,0.27639 -0.566965,0.37797 -0.245441,0.41746 -0.646698,0.0697 -0.944941,0.18899 -0.338725,0.13549 -0.578043,0.47524 -0.944941,0.56697 -0.12015,0.03 -0.711166,-0.0336 -0.755952,0 -0.181708,0.13627 -0.261114,0.37219 -0.377976,0.56696 -0.07247,0.12079 -0.07178,0.29984 -0.188989,0.37797 -0.566962,0.37798 -0.188986,-0.18898 -0.566962,0 -0.07968,0.0399 -0.104471,0.16082 -0.188989,0.18899 -0.119526,0.0398 -0.251984,0 -0.377976,0 -0.063,0 -0.132644,-0.0282 -0.188989,0 -0.144365,0.0722 -0.438989,0.52431 -0.566963,0.56697 -0.119528,0.0398 -0.251984,0 -0.377976,0 -0.278095,0 -0.477408,-0.0199 -0.755954,0.18898 -0.112689,0.0845 -0.08938,0.27837 -0.188986,0.37798 -0.04455,0.0446 -0.127217,-0.0124 -0.18899,0 -0.254696,0.0509 -0.523634,0.0728 -0.755951,0.18899 -0.159369,0.0797 -0.238842,0.26667 -0.377976,0.37797 -1.068485,0.85479 -0.238718,0.0497 -0.755954,0.56697 -0.125992,0.12599 -0.21254,0.3118 -0.377976,0.37798 -0.213191,0.23905 -0.516898,-0.0797 -0.755952,0 -0.403008,0.13433 -0.448294,0.2593 -0.755951,0.56696 -0.063,0.063 -0.109305,0.14915 -0.18899,0.18899 -0.05635,0.0282 -0.125992,0 -0.188986,0 -0.188989,0.063 -0.407596,0.0695 -0.566965,0.18899 -0.112692,0.0845 -0.07178,0.29984 -0.188989,0.37797 -0.104831,0.0699 -0.265285,-0.0563 -0.377976,0 -0.159369,0.0797 -0.225187,0.28631 -0.377976,0.37798 -0.170823,0.10249 -0.388784,0.0999 -0.566965,0.18899 -0.203235,0.10161 -0.66207,0.49624 -0.944941,0.56696 -0.12223,0.0306 -0.265284,-0.0563 -0.377976,0 -0.159369,0.0797 -0.235431,0.27107 -0.377976,0.37798 -0.112691,0.0845 -0.257185,0.11651 -0.377975,0.18898 -0.194768,0.11687 -0.363808,0.2764 -0.566965,0.37798 -0.112689,0.0564 -0.258448,-0.0398 -0.377976,0 -0.133633,0.0446 -0.24434,0.14444 -0.377976,0.18899 -0.05976,0.0199 -0.125992,0 -0.188989,0 -0.125992,0 -0.251984,0 -0.377976,0 -0.267851,0 -0.940075,0.18412 -1.133928,0.37798 -0.0996,0.0996 -0.125991,0.25198 -0.188989,0.37797 -0.125992,0.12599 -0.238839,0.26667 -0.377976,0.37798 -0.177363,0.14189 -0.363807,0.2764 -0.566965,0.37797 -0.05634,0.0282 -0.144441,-0.0445 -0.188986,0 -0.16061,0.16061 -0.183211,0.45011 -0.377976,0.56697 -0.162057,0.0972 -0.383619,-0.0458 -0.566965,0 -0.08643,0.0216 -0.11942,0.13333 -0.188989,0.18899 -0.251984,0.18898 -0.503968,0.37797 -0.755952,0.56696 -0.06299,0 -0.132643,-0.0282 -0.188986,0 -0.07968,0.0398 -0.104471,0.16082 -0.18899,0.18899 -0.119525,0.0398 -0.255746,-0.0306 -0.377975,0 -0.912615,0.22815 0.0094,0.0898 -0.566965,0.37797 -0.178179,0.0891 -0.373701,0.14068 -0.566966,0.18899 -0.377975,0.0945 0,-0.18899 -0.566962,0 -0.267271,0.0891 -0.503968,0.25199 -0.755954,0.37798 -0.125992,0.063 -0.257186,0.11651 -0.377976,0.18899 -0.194765,0.11686 -0.356074,0.29362 -0.566962,0.37797 -0.116983,0.0468 -0.255747,-0.0306 -0.377979,0 -0.136657,0.0342 -0.251984,0.126 -0.377976,0.18899 -0.125992,0.063 -0.257185,0.11652 -0.377975,0.18899 -0.194768,0.11686 -0.348568,0.31558 -0.566965,0.37798 -0.242287,0.0692 -0.516898,-0.0797 -0.755952,0 -0.169034,0.0563 -0.251984,0.25198 -0.377976,0.37797 -0.063,0.063 -0.102558,0.16738 -0.188989,0.18899 -0.183343,0.0458 -0.377976,0 -0.566963,0 -0.063,0 -0.138591,-0.0378 -0.188989,0 -0.213815,0.16036 -0.337783,0.42945 -0.566965,0.56696 -0.04902,0.0294 -0.861488,-0.0139 -0.944938,0 -0.256207,0.0427 -0.509542,0.10686 -0.755954,0.18899 -1.173067,0.39103 0.628107,-0.0153 -0.944941,0.37798 -0.06111,0.0153 -0.125992,0 -0.188987,0 -0.188989,0.063 -0.382002,0.115 -0.566965,0.18899 -0.130789,0.0523 -0.239847,0.16136 -0.377975,0.18898 -0.185317,0.0371 -0.380548,-0.0311 -0.566966,0 -0.1965,0.0327 -0.3737,0.14068 -0.566962,0.18899 -0.06112,0.0153 -0.125992,0 -0.188989,0 -0.251984,0.063 -0.509543,0.10685 -0.755952,0.18899 -0.133636,0.0446 -0.241318,0.15482 -0.377976,0.18899 -0.273724,0.0684 -0.860483,-0.0547 -1.13393,0 -0.138128,0.0276 -0.24434,0.14444 -0.377975,0.18899 -0.24641,0.0821 -0.51479,0.0925 -0.755952,0.18899 -0.08272,0.0331 -0.109305,0.14914 -0.188989,0.18898 -0.05635,0.0282 -0.125992,0 -0.188987,0 -0.278095,0 -0.477409,-0.0199 -0.755954,0.18899 -0.460367,0.34528 0.05705,0.34945 -0.377976,0.56697 -0.102933,0.0515 -1.067768,-0.0441 -1.133927,0 -0.148254,0.0988 -0.229722,0.27914 -0.377976,0.37797 -0.104833,0.0699 -0.25845,-0.0398 -0.377979,0 -0.133633,0.0446 -0.24434,0.14445 -0.377975,0.18899 -0.05976,0.0199 -0.136573,-0.0349 -0.188987,0 -0.125992,0.12599 -0.251984,0.25199 -0.377976,0.37798 -0.063,0 -0.132643,-0.0282 -0.188989,0 -0.07969,0.0398 -0.109305,0.14914 -0.188989,0.18898 -0.112689,0.0563 -0.265285,-0.0563 -0.377976,0 -0.203155,0.10158 -0.356074,0.29363 -0.566962,0.37798 -0.06766,0.0271 -1.007158,0 -1.133931,0"
       id="path56"
       inkscape:connector-curvature="0" />
    <path
       style="fill:none;stroke:#000000;stroke-width:0.26458332px;stroke-linecap:butt;stroke-linejoin:miter;stroke-opacity:1"
       d="m 97.517854,151.47916 c 0.440973,0.50397 0.741492,1.17966 1.322919,1.51191 0.218784,0.12502 0,-0.50397 0,-0.75595 0,-0.25199 0,-0.50397 0,-0.75596 0,-1.25992 0,-2.51984 0,-3.77976 0,-1.44891 0,-2.89781 0,-4.34672 0,-0.50397 0,-1.00794 0,-1.51191 0,-0.18899 -0.03706,-0.38164 0,-0.56696 0.02763,-0.13813 0.154824,-0.24132 0.188987,-0.37798 0.03056,-0.12223 0,-0.25198 0,-0.37798 0,-0.37797 0,-0.75595 0,-1.13392 0,-1.13393 0,-2.26786 0,-3.40179 0,-0.69295 0,-1.38591 0,-2.07887 0,-0.18899 0,-0.37797 0,-0.56696 0,-0.12599 -0.02471,-0.25443 0,-0.37798 0.03907,-0.19534 0.115003,-0.382 0.188989,-0.56696 0.05232,-0.13079 0.161361,-0.23985 0.188989,-0.37798 0.03706,-0.18532 0,-0.37798 0,-0.56696 0,-0.18899 0,-0.37798 0,-0.56697 0,-0.50397 0,-1.00793 0,-1.5119 0,-0.25199 0,-0.50397 0,-0.75596 0,-0.18898 -0.04584,-0.38361 0,-0.56696 0.02162,-0.0864 0.174342,-0.10111 0.188987,-0.18899 0.167989,-1.00793 -0.100793,-0.70555 0,-1.5119 0.063,-0.31498 0.125991,-0.62996 0.188989,-0.94494 0.06299,-0.063 0.160814,-0.10447 0.188986,-0.18899 0.03984,-0.11953 0,-0.25198 0,-0.37798 0,-0.62996 0,-1.25992 0,-1.88988 0,-0.44097 0,-0.88194 0,-1.32291 0,-0.50397 -0.03352,-1.00906 0,-1.51191 0.02963,-0.44446 0.152,-0.879 0.18899,-1.32291 0.0262,-0.3139 -0.066,-0.63696 0,-0.94495 0.50595,-2.36112 0.63291,-0.93213 0.75595,-3.0238 0.037,-0.62888 0,-1.25993 0,-1.88989 0,-0.94494 0,-1.88988 0,-2.83482 0,-3.40178 0,-6.80357 0,-10.205356"
       id="path58"
       inkscape:connector-curvature="0" />
  </g>
</svg>
