<?xml version="1.0" encoding="UTF-8" standalone="no"?>
<!-- Created with Inkscape (http://www.inkscape.org/) -->

<svg
   xmlns:osb="http://www.openswatchbook.org/uri/2009/osb"
   xmlns:dc="http://purl.org/dc/elements/1.1/"
   xmlns:cc="http://creativecommons.org/ns#"
   xmlns:rdf="http://www.w3.org/1999/02/22-rdf-syntax-ns#"
   xmlns:svg="http://www.w3.org/2000/svg"
   xmlns="http://www.w3.org/2000/svg"
   xmlns:xlink="http://www.w3.org/1999/xlink"
   xmlns:sodipodi="http://sodipodi.sourceforge.net/DTD/sodipodi-0.dtd"
   xmlns:inkscape="http://www.inkscape.org/namespaces/inkscape"
   width="297mm"
   height="210mm"
   viewBox="0 0 297 210"
   version="1.1"
   id="svg8"
   sodipodi:docname="monoscope.svg"
   inkscape:version="0.92.5 (2060ec1f9f, 2020-04-08)"
   inkscape:export-filename="/home/balazs/munka/wigner/sugarkovetes/delibab/largesurfacepieceviselinearderivedreflection/monoscope.png"
   inkscape:export-xdpi="343.71048"
   inkscape:export-ydpi="343.71048">
  <defs
     id="defs2">
    <linearGradient
       inkscape:collect="always"
       id="linearGradient2464">
      <stop
         style="stop-color:#000000;stop-opacity:1;"
         offset="0"
         id="stop2460" />
      <stop
         style="stop-color:#000000;stop-opacity:0;"
         offset="1"
         id="stop2462" />
    </linearGradient>
    <linearGradient
       id="linearGradient2456"
       osb:paint="solid">
      <stop
         style="stop-color:#000000;stop-opacity:1;"
         offset="0"
         id="stop2454" />
    </linearGradient>
    <linearGradient
       inkscape:collect="always"
       xlink:href="#linearGradient2464"
       id="linearGradient2466"
       x1="125.05635"
       y1="121.34237"
       x2="183.74787"
       y2="121.34237"
       gradientUnits="userSpaceOnUse" />
    <linearGradient
       inkscape:collect="always"
       xlink:href="#linearGradient2464"
       id="linearGradient2474"
       x1="106.05961"
       y1="262.28989"
       x2="159.71713"
       y2="262.28989"
       gradientUnits="userSpaceOnUse" />
  </defs>
  <sodipodi:namedview
     id="base"
     pagecolor="#ffffff"
     bordercolor="#666666"
     borderopacity="1.0"
     inkscape:pageopacity="1"
     inkscape:pageshadow="2"
     inkscape:zoom="0.98994949"
     inkscape:cx="455.63051"
     inkscape:cy="401.26325"
     inkscape:document-units="mm"
     inkscape:current-layer="layer2"
     showgrid="false"
     inkscape:window-width="1680"
     inkscape:window-height="1026"
     inkscape:window-x="1680"
     inkscape:window-y="0"
     inkscape:window-maximized="1" />
  <metadata
     id="metadata5">
    <rdf:RDF>
      <cc:Work
         rdf:about="">
        <dc:format>image/svg+xml</dc:format>
        <dc:type
           rdf:resource="http://purl.org/dc/dcmitype/StillImage" />
        <dc:title></dc:title>
      </cc:Work>
    </rdf:RDF>
  </metadata>
  <g
     inkscape:groupmode="layer"
     id="layer2"
     inkscape:label="also"
     style="display:inline"
     sodipodi:insensitive="true">
    <rect
       transform="translate(0,-87.000001)"
       style="opacity:1;fill:#fffffe;fill-opacity:1;fill-rule:nonzero;stroke:#000000;stroke-width:0;stroke-miterlimit:4;stroke-dasharray:none;stroke-dashoffset:0;stroke-opacity:1"
       id="rect30"
       width="295.6001"
       height="208.47021"
       x="0.8018086"
       y="87.460693" />
  </g>
  <g
     inkscape:label="1. réteg"
     inkscape:groupmode="layer"
     id="layer1"
     transform="translate(0,-87)"
     style="display:inline">
    <path
       sodipodi:type="spiral"
       style="fill:none;fill-rule:evenodd;stroke:#000000;stroke-width:7;stroke-linecap:round;stroke-linejoin:round;stroke-miterlimit:4;stroke-dasharray:none"
       id="path12"
       sodipodi:cx="70.291885"
       sodipodi:cy="157.75258"
       sodipodi:expansion="1"
       sodipodi:revolution="3"
       sodipodi:radius="67.242592"
       sodipodi:argument="-21.024891"
       sodipodi:t0="0"
       d="m 70.291885,157.75258 c -1.916265,-2.7739 2.793742,-3.95163 4.610401,-3.18496 4.923036,2.07763 4.546078,8.80112 1.759519,12.40576 -4.984501,6.44786 -14.699271,5.53359 -20.201122,0.33408 -8.074188,-7.63049 -6.566625,-20.68332 1.091364,-27.99649 10.206895,-9.7473 26.698618,-7.62003 35.791843,2.51681 11.4429,12.75618 8.68419,32.72901 -3.942247,43.5872 -15.292306,13.15073 -38.767933,9.7546 -51.382564,-5.36768 -14.865907,-17.82109 -10.828933,-44.81219 6.793129,-59.17793 20.345368,-16.58581 50.859992,-11.90589 66.973282,8.21857 18.30895,22.8667 12.98469,56.9103 -9.64401,74.76865 C 76.7555,223.89096 39.179065,217.9214 19.577475,192.78714 -2.1840051,164.88334 4.4315447,123.77123 32.072369,102.42777" />
    <path
       sodipodi:type="spiral"
       style="fill:none;fill-rule:evenodd;stroke:#000000;stroke-width:13;stroke-linecap:round;stroke-miterlimit:4;stroke-dasharray:none"
       id="path822"
       sodipodi:cx="230.38632"
       sodipodi:cy="221.89726"
       sodipodi:expansion="1"
       sodipodi:revolution="3"
       sodipodi:radius="70.94735"
       sodipodi:argument="-16.281338"
       sodipodi:t0="0"
       d="m 230.38632,221.89726 c -2.9883,1.92967 -4.07547,-3.07614 -3.20723,-4.96676 2.35288,-5.12344 9.43096,-4.50487 13.14075,-1.4477 6.63594,5.46854 5.35238,15.68352 -0.31182,21.31474 -8.31243,8.26404 -22.02815,6.24507 -29.48873,-2.07134 -9.94378,-11.08447 -7.15823,-28.40643 3.83086,-37.66273 13.82865,-11.64812 34.80096,-8.08221 45.83673,5.59039 13.36579,16.55935 9.0125,41.2047 -7.34992,54.01072 -19.28255,15.09145 -47.61418,9.94677 -62.18471,-9.10945 -16.82225,-22.00115 -10.88369,-54.0275 10.86897,-70.3587 24.71675,-18.55654 60.44352,-11.82246 78.53269,12.6285 20.29333,27.43027 12.76257,66.86149 -14.38802,86.70668 -30.1423,22.03193 -73.28094,13.70369 -94.88068,-16.14754"
       transform="matrix(0.92282108,0,0,0.95001506,18.108653,0.69472999)" />
    <text
       xml:space="preserve"
       style="font-style:normal;font-variant:normal;font-weight:normal;font-stretch:normal;font-size:10.58333302px;line-height:1.25;font-family:'Arial Black';-inkscape-font-specification:'Arial Black, ';letter-spacing:0px;word-spacing:0px;fill:#000000;fill-opacity:1;stroke:none;stroke-width:0.26458332"
       id="text826"
       transform="matrix(1.2784049,0,0,1.3955083,-16.601368,-114.31523)"><textPath
         xlink:href="#path828"
         id="textPath830"><tspan
   style="font-style:normal;font-variant:normal;font-weight:normal;font-stretch:normal;font-family:'Arial Black';-inkscape-font-specification:'Arial Black, ';stroke-width:0.26458332"
   id="tspan824">Örök élet, ingyen sör, adócsökkentés</tspan></textPath></text>
    <path
       style="opacity:0;fill:none;stroke:#000000;stroke-width:0;stroke-linecap:butt;stroke-linejoin:miter;stroke-miterlimit:4;stroke-dasharray:none;stroke-opacity:1"
       d="M 43.030393,290.58553 264.59682,112.58403"
       id="path828"
       inkscape:connector-curvature="0" />
    <path
       sodipodi:type="star"
       style="fill:url(#linearGradient2474);fill-opacity:1;stroke:#000000;stroke-width:2;stroke-miterlimit:4;stroke-dasharray:4.00000011, 4.00000011;stroke-dashoffset:0;stroke-opacity:1"
       id="path99"
       sodipodi:sides="5"
       sodipodi:cx="131.49661"
       sodipodi:cy="261.18588"
       sodipodi:r1="28.247242"
       sodipodi:r2="14.12362"
       sodipodi:arg1="-1.2131331"
       sodipodi:arg2="-0.58481455"
       inkscape:flatsided="false"
       inkscape:rounded="0"
       inkscape:randomized="0"
       d="m 141.38558,234.7262 1.88751,18.66281 16.44404,9.02535 -17.16612,7.56225 -3.50213,18.4282 -12.49675,-13.98909 -18.60848,2.3639 9.44271,-16.20798 -7.99854,-16.96722 18.33266,3.972 z"
       inkscape:transform-center-x="-2.3337765"
       inkscape:transform-center-y="0.37961899" />
    <path
       sodipodi:type="star"
       style="opacity:1;fill:url(#linearGradient2466);fill-opacity:1;fill-rule:nonzero;stroke:#000000;stroke-width:1;stroke-miterlimit:4;stroke-dasharray:none;stroke-opacity:1"
       id="path101"
       sodipodi:sides="5"
       sodipodi:cx="157.15448"
       sodipodi:cy="121.67119"
       sodipodi:r1="30.985983"
       sodipodi:r2="15.49299"
       sodipodi:arg1="-0.59517951"
       sodipodi:arg2="0.033139017"
       inkscape:flatsided="false"
       inkscape:rounded="0"
       inkscape:randomized="0"
       d="m 182.81236,104.29867 -10.1734,17.88585 8.96649,18.52036 -20.15421,-4.14845 -14.84311,14.25074 -2.28259,-20.44972 -18.14003,-9.71292 18.74349,-8.49018 3.63195,-20.253657 13.8667,15.202507 z"
       inkscape:transform-center-x="2.6555483"
       inkscape:transform-center-y="-0.3172549" />
  </g>
</svg>
